# xmcd
#
# Track frame offsets: 
#        150
#        13607
#        25630
#        38572
#        49230
#        68302
#        85820
#        97800
#        119154
#        130687
#        143325
#        155809
#        167734
#        187990
#
# Disc length: 2661 seconds
#
# Revision: 0
# Processed by: cddbd v1.4PL0 Copyright (c) Steve Scherf et al.
# Submitted via: ExactAudioCopy v0.90a11
#
DISCID=a50a630e
DTITLE=Lightnin' Hopkins - 28 Great Songs disc 2
DYEAR=1900
DGENRE=blues
TTITLE0=Mojo Hand
TTITLE1=Evil Hearted Woman
TTITLE2=Rosie Mae
TTITLE3=Nothin' But The Blues
TTITLE4=Leave Jike Mary Alone
TTITLE5=California Landslide
TTITLE6=Don't Think Cause You're Pretty
TTITLE7=Don't Make Me
TTITLE8=Easy On Your Heels
TTITLE9=Life I Used To Live
TTITLE10=My Baby's Gone
TTITLE11=Shinin' Moon
TTITLE12=You Treat Po' Lighnin' Wrong
TTITLE13=Talk Of The Town
EXTD=
EXTT0=
EXTT1=
EXTT2=
EXTT3=
EXTT4=
EXTT5=
EXTT6=
EXTT7=
EXTT8=
EXTT9=
EXTT10=
EXTT11=
EXTT12=
EXTT13=
PLAYORDER=
